<?xml version="1.0" standalone="no"?>
<!DOCTYPE svg PUBLIC "-//W3C//DTD SVG 20010904//EN"
 "http://www.w3.org/TR/2001/REC-SVG-20010904/DTD/svg10.dtd">
<svg version="1.0" xmlns="http://www.w3.org/2000/svg"
 width="727.000000pt" height="711.000000pt" viewBox="0 0 727.000000 711.000000"
 preserveAspectRatio="xMidYMid meet">

<g transform="translate(0.000000,711.000000) scale(0.100000,-0.100000)"
fill="#000000" stroke="none">
<path d="M2140 5660 c-11 -11 -20 -30 -20 -43 0 -13 20 -124 45 -248 25 -123
44 -229 43 -236 -3 -11 -440 269 -486 310 -16 15 -87 16 -830 10 l-812 -6 0
-75 0 -75 782 7 782 7 244 -163 244 -162 -252 -51 c-218 -44 -255 -54 -271
-74 -11 -13 -19 -34 -19 -48 0 -29 41 -73 69 -73 11 0 140 25 286 55 147 30
271 55 276 55 6 0 -19 -33 -54 -73 -176 -202 -314 -466 -386 -738 -31 -119
-61 -297 -61 -368 l0 -41 -727 0 -727 0 182 183 c157 158 182 187 182 214 0
38 -26 70 -63 79 -27 6 -45 -10 -289 -252 -143 -143 -263 -268 -268 -279 -4
-11 -3 -31 2 -45 11 -30 471 -495 510 -516 38 -20 55 -18 83 11 50 49 42 63
-162 267 l-188 188 731 0 731 0 7 -96 c25 -363 183 -748 430 -1052 36 -45 61
-82 53 -82 -7 0 -125 22 -262 50 -137 27 -263 50 -280 50 -63 0 -97 -73 -55
-118 12 -12 22 -22 24 -22 4 0 450 -89 475 -95 21 -5 -12 -30 -215 -167 l-239
-160 -788 6 -787 5 0 -73 0 -73 488 -7 c268 -3 632 -6 808 -7 l322 -1 256 171
c141 94 257 171 259 171 2 0 -18 -109 -44 -242 -27 -133 -49 -250 -49 -260 0
-27 45 -68 73 -68 59 0 65 17 123 305 30 149 59 293 65 322 l10 52 62 -48
c228 -178 501 -303 800 -367 167 -35 475 -45 647 -20 292 43 553 140 785 293
405 267 689 662 809 1126 27 104 56 291 56 362 l0 45 732 0 733 0 -188 -188
c-196 -196 -206 -211 -172 -259 20 -28 59 -37 93 -19 39 21 499 486 510 516 5
14 6 34 2 45 -5 11 -125 136 -268 279 -244 242 -262 258 -289 252 -37 -9 -63
-41 -63 -79 0 -27 25 -56 182 -214 l182 -183 -342 0 c-331 0 -342 1 -342 19 0
18 2 19 30 4 63 -31 124 21 124 107 0 41 -5 55 -29 80 -32 33 -84 41 -105 15
-16 -19 -30 -19 -30 0 0 8 -7 15 -15 15 -12 0 -15 -20 -15 -120 l0 -120 -365
0 -365 0 0 41 c0 71 -30 249 -61 369 -175 661 -708 1189 -1374 1359 -208 53
-470 73 -669 52 -361 -40 -700 -172 -972 -381 -76 -58 -79 -60 -86 -38 -4 13
-33 153 -64 311 -40 203 -63 296 -76 313 -25 31 -79 33 -108 4z m1723 -365
c244 -32 477 -113 682 -236 278 -167 530 -439 675 -728 91 -182 162 -433 177
-622 l6 -79 -387 0 -386 0 0 440 0 440 -1000 0 -1000 0 0 -955 0 -955 1000 0
1000 0 0 440 0 440 386 0 387 0 -6 -91 c-19 -264 -123 -564 -277 -799 -447
-680 -1278 -968 -2052 -710 -625 208 -1085 755 -1183 1408 -24 159 -22 386 5
547 59 350 218 667 463 921 164 171 291 266 490 365 317 160 671 220 1020 174z
m617 -1740 l0 -805 -852 2 -853 3 -3 790 c-1 435 0 796 3 803 3 9 184 12 855
12 l850 0 0 -805z m1944 263 c9 -12 16 -41 16 -64 0 -34 -5 -47 -27 -63 -28
-23 -59 -20 -80 7 -19 23 -16 102 4 124 23 25 68 23 87 -4z"/>
<path d="M3570 4020 c-142 -25 -234 -112 -247 -233 -8 -77 27 -152 90 -196 54
-37 73 -45 197 -81 126 -36 197 -67 220 -97 51 -65 26 -161 -55 -209 -36 -21
-64 -28 -120 -32 -122 -8 -207 34 -236 116 -11 31 -13 32 -65 32 -49 0 -54 -2
-54 -22 0 -38 45 -122 81 -152 68 -58 112 -70 249 -71 139 0 182 12 252 74
106 93 109 269 7 355 -49 42 -98 63 -221 97 -134 37 -176 57 -212 99 -69 83 7
205 141 225 24 3 69 1 101 -6 46 -9 65 -20 100 -54 23 -23 42 -52 42 -64 0
-19 6 -21 55 -21 52 0 55 1 55 25 0 68 -93 172 -178 199 -61 20 -146 26 -202
16z"/>
<path d="M834 3847 c-34 -30 -45 -108 -20 -155 27 -52 110 -63 156 -20 17 16
19 22 9 29 -8 5 -20 2 -31 -8 -27 -24 -78 -21 -100 6 -34 43 -25 51 62 51 l80
0 0 31 c0 20 -10 40 -29 60 -37 37 -88 39 -127 6z m98 -19 c8 -7 18 -21 21
-30 6 -16 -1 -18 -58 -18 -36 0 -65 3 -65 7 0 4 10 17 22 30 24 25 56 30 80
11z"/>
</g>
</svg>
