<?xml version="1.0" standalone="no"?>
<!DOCTYPE svg PUBLIC "-//W3C//DTD SVG 20010904//EN"
 "http://www.w3.org/TR/2001/REC-SVG-20010904/DTD/svg10.dtd">
<svg version="1.0" xmlns="http://www.w3.org/2000/svg"
 width="512.000000pt" height="512.000000pt" viewBox="0 0 512.000000 512.000000"
 preserveAspectRatio="xMidYMid meet">

<g transform="translate(0.000000,512.000000) scale(0.100000,-0.100000)"
fill="#000000" stroke="none">
<path d="M650 5065 c-337 -68 -587 -329 -639 -665 -9 -55 -11 -440 -9 -1470 3
-1520 -1 -1406 58 -1562 66 -177 261 -372 438 -438 147 -55 131 -54 683 -58
l516 -3 268 -340 c147 -186 285 -354 306 -372 95 -82 235 -120 359 -99 75 13
152 47 210 92 20 16 157 183 305 373 l270 345 520 4 c445 3 528 6 575 20 107
32 170 60 242 107 225 147 361 389 362 642 1 87 -1 99 -26 136 -41 62 -90 88
-168 88 -123 0 -184 -64 -201 -211 -18 -165 -91 -274 -227 -342 l-76 -37 -580
-5 c-558 -5 -582 -6 -615 -25 -20 -12 -148 -167 -334 -403 -165 -211 -307
-386 -315 -390 -8 -3 -22 -1 -31 5 -9 5 -151 180 -316 388 -194 245 -312 386
-335 400 -34 19 -54 20 -610 25 l-575 5 -67 32 c-93 44 -151 100 -196 191
l-37 76 0 1400 0 1401 32 67 c44 93 100 151 191 196 l76 37 1856 0 1856 0 76
-37 c91 -45 147 -103 191 -196 l32 -67 5 -885 5 -885 24 -38 c13 -21 42 -50
64 -65 34 -23 52 -27 107 -27 55 0 73 4 107 27 22 15 51 44 64 65 l24 38 0
900 c0 977 3 924 -55 1077 -29 77 -104 191 -175 261 -99 101 -212 166 -375
215 -50 16 -208 17 -1925 19 -1515 1 -1882 -1 -1935 -12z"/>
<path d="M2492 3989 c-48 -14 -109 -80 -123 -131 -23 -89 12 -182 88 -229 57
-36 154 -34 210 3 62 41 88 90 88 168 0 77 -26 127 -85 166 -43 29 -125 39
-178 23z"/>
<path d="M2492 3299 c-46 -14 -109 -80 -122 -128 -7 -28 -10 -228 -8 -624 l3
-583 27 -41 c41 -62 90 -88 168 -88 78 0 127 26 168 88 l27 41 0 605 0 606
-24 38 c-47 76 -151 113 -239 86z"/>
</g>
</svg>
